# xmcd
#
# Track frame offsets:
#	150
#	15445
#	34910
#	50158
#	93590
#
# Disc length: 1283 seconds
#
# Revision: 1
# Processed by: cddbd v1.5.1PL0 Copyright (c) Steve Scherf et al.
# Submitted via: CDex 1.50Beta5
#
DISCID=3a050105
DTITLE=関口和之featuring KONISHIKI - 私の青空〜MY BLUE HEAVEN〜
DYEAR=1900
DGENRE=Other
TTITLE0=私の青空  〜MY BLUE HEAVEN〜
TTITLE1=海へ行こう〜ukulele picnic〜
TTITLE2=MY BLUE HEAVEN
TTITLE3=BRAZIL
TTITLE4=MY BLUE HEAVEN
EXTD=
EXTT0=
EXTT1=
EXTT2=
EXTT3=
EXTT4=
PLAYORDER=
